<?xml version="1.0" encoding="UTF-8" standalone="no"?>
<!-- Created with Inkscape (http://www.inkscape.org/) -->

<svg
   viewBox="0 0 210 297"
   version="1.1"
   id="svg1"
   inkscape:version="1.3.2 (091e20e, 2023-11-25, custom)"
   sodipodi:docname="Key lock.svg"
   xmlns:inkscape="http://www.inkscape.org/namespaces/inkscape"
   xmlns:sodipodi="http://sodipodi.sourceforge.net/DTD/sodipodi-0.dtd"
   xmlns="http://www.w3.org/2000/svg"
   xmlns:svg="http://www.w3.org/2000/svg">
  <sodipodi:namedview
     id="namedview1"
     pagecolor="#ffffff"
     bordercolor="#000000"
     borderopacity="0.25"
     inkscape:showpageshadow="2"
     inkscape:pageopacity="0.0"
     inkscape:pagecheckerboard="0"
     inkscape:deskcolor="#d1d1d1"
     inkscape:document-units="mm"
     inkscape:zoom="1.8519888"
     inkscape:cx="337.74501"
     inkscape:cy="478.67459"
     inkscape:window-width="1920"
     inkscape:window-height="974"
     inkscape:window-x="-11"
     inkscape:window-y="-11"
     inkscape:window-maximized="1"
     inkscape:current-layer="layer1" />
  <defs
     id="defs1" />
  <g
     inkscape:label="Layer 1"
     inkscape:groupmode="layer"
     id="layer1">
    <path
       id="path2"
       style="fill:#bcbcbc;fill-opacity:1;stroke-width:0.275793;stroke-linecap:round;stroke-linejoin:round;paint-order:markers fill stroke"
       d="m 93.747039,100.75106 a 19.022918,19.022918 0 0 0 -19.023021,19.02297 19.022918,19.022918 0 0 0 19.023021,19.02282 19.022918,19.022918 0 0 0 19.022821,-19.02282 19.022918,19.022918 0 0 0 -19.022821,-19.02297 z m 0,7.45054 A 11.572275,11.572275 0 0 1 105.31931,119.77403 11.572275,11.572275 0 0 1 93.747039,131.3463 11.572275,11.572275 0 0 1 82.174771,119.77403 11.572275,11.572275 0 0 1 93.747039,108.2016 Z" />
    <rect
       style="fill:#aeaeae;fill-opacity:1;stroke-width:0.306384;stroke-linecap:round;stroke-linejoin:round;paint-order:markers fill stroke"
       id="rect1"
       width="45.787983"
       height="45.787983"
       x="70.852951"
       y="118.90897"
       ry="4.226583" />
    <rect
       style="fill:#c6c6c6;fill-opacity:1;stroke-width:0.219521;stroke-linecap:round;stroke-linejoin:round;paint-order:markers fill stroke"
       id="rect2"
       width="32.806816"
       height="32.806816"
       x="77.343529"
       y="125.60715"
       ry="3.0283217" />
  </g>
</svg>
